<?xml version="1.0" encoding="iso-8859-1"?>
<!-- Uploaded to: SVG Repo, www.svgrepo.com, Generator: SVG Repo Mixer Tools -->
<svg fill="#6A7C69" height="800px" width="800px" version="1.1" id="Layer_1" xmlns="http://www.w3.org/2000/svg" xmlns:xlink="http://www.w3.org/1999/xlink"
	 viewBox="0 0 512 512" xml:space="preserve">
<g>
	<g>
		<path d="M502.691,104.727L258.327,58.182c-1.164,0-2.327,0-4.655,0L9.309,104.727C3.491,105.891,0,110.545,0,116.364v46.545
			c0,6.982,4.655,11.636,11.636,11.636h23.273v267.636c0,6.982,4.655,11.636,11.636,11.636h302.545
			c6.982,0,11.636-4.655,11.636-11.636s-4.655-11.636-11.636-11.636H58.182V162.909c0-6.982-4.655-11.636-11.636-11.636H23.273
			v-25.6L256,81.455l232.727,44.218v25.6h-23.273c-6.982,0-11.636,4.655-11.636,11.636v267.636h-46.545V186.182
			c0-6.982-4.655-11.636-11.636-11.636H116.364c-6.982,0-11.636,4.655-11.636,11.636v209.455c0,6.982,4.655,11.636,11.636,11.636
			S128,402.618,128,395.636V197.818h256v244.364c0,6.982,4.655,11.636,11.636,11.636h69.818c6.982,0,11.636-4.655,11.636-11.636
			V174.545h23.273c6.982,0,11.636-4.655,11.636-11.636v-46.545C512,110.545,508.509,105.891,502.691,104.727z"/>
	</g>
</g>
<g>
	<g>
		<path d="M349.091,372.364H162.909c-6.982,0-11.636,4.655-11.636,11.636s4.655,11.636,11.636,11.636h186.182
			c6.982,0,11.636-4.655,11.636-11.636S356.073,372.364,349.091,372.364z"/>
	</g>
</g>
<g>
	<g>
		<path d="M349.091,279.273H162.909c-6.982,0-11.636,4.655-11.636,11.636s4.655,11.636,11.636,11.636h186.182
			c6.982,0,11.636-4.655,11.636-11.636S356.073,279.273,349.091,279.273z"/>
	</g>
</g>
<g>
	<g>
		<path d="M349.091,325.818H162.909c-6.982,0-11.636,4.655-11.636,11.636c0,6.982,4.655,11.636,11.636,11.636h186.182
			c6.982,0,11.636-4.655,11.636-11.636C360.727,330.473,356.073,325.818,349.091,325.818z"/>
	</g>
</g>
<g>
	<g>
		<path d="M349.091,232.727H162.909c-6.982,0-11.636,4.655-11.636,11.636S155.927,256,162.909,256h186.182
			c6.982,0,11.636-4.655,11.636-11.636S356.073,232.727,349.091,232.727z"/>
	</g>
</g>
</svg>