<?xml version="1.0" encoding="iso-8859-1"?>
<!-- Uploaded to: SVG Repo, www.svgrepo.com, Generator: SVG Repo Mixer Tools -->
<svg fill="#6A7C69" height="800px" width="800px" version="1.1" id="Layer_1" xmlns="http://www.w3.org/2000/svg" xmlns:xlink="http://www.w3.org/1999/xlink"
	 viewBox="0 0 511.999 511.999" xml:space="preserve">
<g>
	<g>
		<path d="M456.347,445.216h-16.696V294.955c0-9.22-7.475-16.696-16.696-16.696h-50.087V161.39c0-9.22-7.475-16.696-16.696-16.696
			H189.217c-9.22,0-16.696,7.475-16.696,16.696v133.565v92.463c-9.831-5.702-21.231-8.984-33.391-8.984V83.477
			c0-4.429-1.76-8.675-4.891-11.805L67.457,4.889c-6.519-6.519-17.091-6.519-23.611,0s-6.52,17.091,0,23.611l61.893,61.891v297.026
			c-19.941,11.566-33.391,33.134-33.391,57.799c0,36.824,29.959,66.783,66.783,66.783c24.664,0,46.232-13.45,57.798-33.391
			c2.994,0,252.77,0,259.419,0c9.22,0,16.696-7.475,16.696-16.696S465.568,445.216,456.347,445.216z M139.13,478.607
			c-18.412,0-33.391-14.979-33.391-33.391c0-18.412,14.979-33.391,33.391-33.391c18.412,0,33.391,14.979,33.391,33.391
			C172.521,463.628,157.542,478.607,139.13,478.607z M205.913,178.086h133.565v100.174H205.913V178.086z M406.26,445.216H205.913
			V311.651c2.666,0,197.729,0,200.348,0V445.216z"/>
	</g>
</g>
</svg>